<svg width="10" height="14" viewBox="0 0 10 14" fill="none" xmlns="http://www.w3.org/2000/svg">
<path d="M4.82409 0C2.64154 0 1.22789 0.894223 0.118037 2.48899C-0.0832953 2.77829 -0.021225 3.17494 0.259623 3.38789L1.43918 4.28228C1.72281 4.49734 2.12638 4.44705 2.34844 4.16886C3.03337 3.31078 3.54145 2.81673 4.61133 2.81673C5.45253 2.81673 6.49301 3.35811 6.49301 4.17383C6.49301 4.79049 5.98395 5.10718 5.15336 5.57285C4.18476 6.11589 2.903 6.79172 2.903 8.48236V8.75C2.903 9.11244 3.19681 9.40625 3.55925 9.40625H5.54088C5.90332 9.40625 6.19713 9.11244 6.19713 8.75V8.59214C6.19713 7.42019 9.62242 7.37138 9.62242 4.2C9.62245 1.81169 7.14505 0 4.82409 0ZM4.55008 10.2118C3.50565 10.2118 2.65595 11.0615 2.65595 12.1059C2.65595 13.1503 3.50565 14 4.55008 14C5.5945 14 6.4442 13.1503 6.4442 12.1059C6.4442 11.0614 5.5945 10.2118 4.55008 10.2118Z" fill="#3A3A3A"/>
</svg>
