<svg width="7" height="19" viewBox="0 0 7 19" fill="none" xmlns="http://www.w3.org/2000/svg">
<g clip-path="url(#clip0)">
<path d="M0.729167 15.4667H1.45833V10.2H0.729167C0.326448 10.2 0 9.87354 0 9.47082V7.72917C0 7.32645 0.326448 7 0.729167 7H4.8125C5.21522 7 5.54167 7.32645 5.54167 7.72917V15.4667H6.27083C6.67355 15.4667 7 15.7931 7 16.1958V17.9375C7 18.3402 6.67355 18.6667 6.27083 18.6667H0.729167C0.326448 18.6667 0 18.3402 0 17.9375V16.1958C0 15.7931 0.326448 15.4667 0.729167 15.4667ZM3.5 0C2.05023 0 0.875 1.17523 0.875 2.625C0.875 4.07477 2.05023 5.25 3.5 5.25C4.94977 5.25 6.125 4.07477 6.125 2.625C6.125 1.17523 4.94973 0 3.5 0Z" fill="white"/>
</g>
<defs>
<clipPath id="clip0">
<rect width="7" height="18.6667" fill="white"/>
</clipPath>
</defs>
</svg>
