<svg width="14" height="11" viewBox="0 0 14 11" fill="none" xmlns="http://www.w3.org/2000/svg">
<path d="M11.375 10.5H9.07812C8.89766 10.5 8.75 10.3523 8.75 10.1719V9.07812C8.75 8.89766 8.89766 8.75 9.07812 8.75H11.375C11.859 8.75 12.25 8.35898 12.25 7.875V2.625C12.25 2.14102 11.859 1.75 11.375 1.75H9.07812C8.89766 1.75 8.75 1.60234 8.75 1.42188V0.328125C8.75 0.147656 8.89766 0 9.07812 0H11.375C12.8242 0 14 1.17578 14 2.625V7.875C14 9.32422 12.8242 10.5 11.375 10.5ZM10.0898 5.00391L5.49609 0.410156C5.08594 0 4.375 0.287109 4.375 0.875V3.5H0.65625C0.292578 3.5 0 3.79258 0 4.15625V6.78125C0 7.14492 0.292578 7.4375 0.65625 7.4375H4.375V10.0625C4.375 10.6504 5.08594 10.9375 5.49609 10.5273L10.0898 5.93359C10.3441 5.67656 10.3441 5.26094 10.0898 5.00391Z" fill="#3A3A3A"/>
</svg>
