<svg width="19" height="16" viewBox="0 0 19 16" fill="none" xmlns="http://www.w3.org/2000/svg">
<path d="M0.653061 2.93878H17.6327C17.9933 2.93878 18.2857 2.64641 18.2857 2.28571V0.653061C18.2857 0.292367 17.9933 0 17.6327 0H0.653061C0.292367 0 0 0.292367 0 0.653061V2.28571C0 2.64641 0.292367 2.93878 0.653061 2.93878ZM0.653061 9.46939H17.6327C17.9933 9.46939 18.2857 9.17702 18.2857 8.81633V7.18367C18.2857 6.82298 17.9933 6.53061 17.6327 6.53061H0.653061C0.292367 6.53061 0 6.82298 0 7.18367V8.81633C0 9.17702 0.292367 9.46939 0.653061 9.46939ZM0.653061 16H17.6327C17.9933 16 18.2857 15.7076 18.2857 15.3469V13.7143C18.2857 13.3536 17.9933 13.0612 17.6327 13.0612H0.653061C0.292367 13.0612 0 13.3536 0 13.7143V15.3469C0 15.7076 0.292367 16 0.653061 16Z" fill="white"/>
</svg>
