<svg width="24" height="25" viewBox="0 0 24 25" fill="none" xmlns="http://www.w3.org/2000/svg">
<path fill-rule="evenodd" clip-rule="evenodd" d="M12 4L1 10L5 12.18V18.18L12 22L19 18.18V12.18L21 11.09V18H23V10L12 4ZM18.82 10L12 13.72L5.18 10L12 6.28L18.82 10ZM12 19.72L17 16.99V13.27L12 16L7 13.27V16.99L12 19.72Z" fill="black" fill-opacity="0.54"/>
<circle cx="18" cy="6" r="5" fill="white" stroke="#696969" stroke-width="2"/>
<path d="M18.6738 5.30664H20.9004V6.60742H18.6738V9.14453H17.291V6.60742H15.0527V5.30664H17.291V2.93359H18.6738V5.30664Z" fill="#696969"/>
</svg>
