<svg width="14" height="12" viewBox="0 0 14 12" fill="none" xmlns="http://www.w3.org/2000/svg">
<path d="M13.65 4.55H12.25V3.15C12.25 2.9575 12.0925 2.8 11.9 2.8H11.2C11.0075 2.8 10.85 2.9575 10.85 3.15V4.55H9.45C9.2575 4.55 9.1 4.7075 9.1 4.9V5.6C9.1 5.7925 9.2575 5.95 9.45 5.95H10.85V7.35C10.85 7.5425 11.0075 7.7 11.2 7.7H11.9C12.0925 7.7 12.25 7.5425 12.25 7.35V5.95H13.65C13.8425 5.95 14 5.7925 14 5.6V4.9C14 4.7075 13.8425 4.55 13.65 4.55ZM4.9 5.6C6.44656 5.6 7.7 4.34656 7.7 2.8C7.7 1.25344 6.44656 0 4.9 0C3.35344 0 2.1 1.25344 2.1 2.8C2.1 4.34656 3.35344 5.6 4.9 5.6ZM6.86 6.3H6.49469C6.00906 6.52312 5.46875 6.65 4.9 6.65C4.33125 6.65 3.79313 6.52312 3.30531 6.3H2.94C1.31687 6.3 0 7.61687 0 9.24V10.15C0 10.7297 0.470312 11.2 1.05 11.2H8.75C9.32969 11.2 9.8 10.7297 9.8 10.15V9.24C9.8 7.61687 8.48312 6.3 6.86 6.3Z" fill="#3A3A3A"/>
</svg>
