<svg width="20" height="20" viewBox="0 0 20 20" fill="none" xmlns="http://www.w3.org/2000/svg">
<path d="M19.8169 18.0493L17.5001 15.7325L18.736 13.4266C18.8661 13.1837 18.822 12.8845 18.627 12.6895L17.9419 12.0048C17.6977 11.7606 17.302 11.7606 17.0579 12.0048L16.4063 12.6563L4.37508 0.625084L0.713756 0.00633376C0.323131 -0.0495256 -0.055385 0.280162 0.00672439 0.713365L0.625474 4.37469L12.6567 16.4059L12.0048 17.0579C11.7606 17.302 11.7606 17.6977 12.0048 17.9415L12.6895 18.6266C12.7844 18.7215 12.9073 18.7834 13.0401 18.803C13.1728 18.8226 13.3084 18.799 13.4266 18.7356L15.7325 17.5001L18.0493 19.8169C18.2934 20.061 18.6891 20.061 18.9333 19.8169L19.8169 18.9333C20.061 18.6891 20.061 18.2934 19.8169 18.0493ZM13.9825 15.0802L2.3743 3.47235L2.15087 2.15087L3.47274 2.3743L15.0809 13.9821L13.9825 15.0802ZM16.5282 2.3743L17.8497 2.15087L17.6263 3.47274L13.3087 7.79032L14.6345 9.1161L19.3755 4.37508L19.9942 0.713756C20.0501 0.323131 19.7204 -0.055385 19.2872 0.00672439L15.6259 0.625474L10.8845 5.3661L12.2102 6.69188L16.5282 2.3743ZM7.7911 13.3083L6.01844 15.0809L4.92001 13.9825L6.69266 12.2099L5.36688 10.8841L3.59422 12.6567L2.94227 12.0048C2.69813 11.7606 2.30243 11.7606 2.05868 12.0048L1.37352 12.6895C1.27863 12.7844 1.2168 12.9073 1.19717 13.0401C1.17755 13.1728 1.20117 13.3084 1.26454 13.4266L2.50008 15.7325L0.183287 18.0493C-0.0608537 18.2934 -0.0608537 18.6891 0.183287 18.9333L1.06688 19.8169C1.31102 20.061 1.70672 20.061 1.95087 19.8169L4.26766 17.5001L6.57352 18.736C6.81649 18.8661 7.11571 18.822 7.31063 18.627L7.9954 17.9419C8.23954 17.6977 8.23954 17.302 7.9954 17.0579L7.34383 16.4063L9.11649 14.6337L7.7911 13.3083Z" fill="#757575"/>
</svg>
