<svg width="57" height="38" viewBox="0 0 57 38" fill="none" xmlns="http://www.w3.org/2000/svg">
<path d="M27.2921 12.75H28.9581C29.5255 12.75 29.9688 12.1475 29.9083 11.4551L29.5421 7.19922C29.5079 6.80176 29.2345 6.5 28.9083 6.5H27.3409C27.0147 6.5 26.7413 6.80176 26.7071 7.19922L26.3409 11.4551C26.2813 12.1475 26.7247 12.75 27.2921 12.75ZM26.7042 23.6875H29.546C30.3028 23.6875 30.8927 22.8838 30.8136 21.9609L30.4102 17.2734C30.3419 16.4785 29.795 15.875 29.1427 15.875H27.1085C26.4561 15.875 25.9093 16.4785 25.8409 17.2734L25.4376 21.9609C25.3575 22.8838 25.9473 23.6875 26.7042 23.6875ZM27.7452 3.375H28.5059C28.8848 3.375 29.1798 2.97266 29.1397 2.51172L29.005 0.949219C28.9708 0.551758 28.6973 0.25 28.3712 0.25H27.88C27.5538 0.25 27.2804 0.551758 27.2462 0.949219L27.1114 2.51172C27.0714 2.97266 27.3663 3.375 27.7452 3.375ZM30.0841 26.8125H26.1661C25.5138 26.8125 24.9669 27.416 24.8985 28.2109L24.2257 36.0234C24.1466 36.9463 24.7364 37.75 25.4932 37.75H30.7559C31.5128 37.75 32.1026 36.9463 32.0235 36.0234L31.3507 28.2109C31.2833 27.416 30.7364 26.8125 30.0841 26.8125ZM15.3663 0.25C15.2121 0.249936 15.0614 0.295536 14.9331 0.381047C14.8049 0.466557 14.7048 0.588146 14.6456 0.730469L0.122154 35.5869C-0.306557 36.6152 0.449302 37.75 1.56454 37.75H4.29891C4.99325 37.75 5.60458 37.292 5.79891 36.625L16.1163 1.25C16.2618 0.75 15.8868 0.25 15.3663 0.25ZM56.128 35.5869L41.6055 0.730469C41.5462 0.588222 41.4461 0.466705 41.3179 0.381211C41.1896 0.295716 41.039 0.250064 40.8848 0.25C40.3643 0.25 39.9893 0.75 40.1348 1.25L50.4522 36.625C50.5468 36.9496 50.7442 37.2347 51.0147 37.4376C51.2851 37.6404 51.6141 37.7501 51.9522 37.75H54.6866C55.8009 37.75 56.5577 36.6152 56.128 35.5869Z" fill="#54B052"/>
</svg>
