<svg width="57" height="50" viewBox="0 0 57 50" fill="none" xmlns="http://www.w3.org/2000/svg">
<g clip-path="url(#clip0)">
<path d="M27.2921 18.75H28.9581C29.5255 18.75 29.9688 18.1475 29.9083 17.4551L29.5421 13.1992C29.5079 12.8018 29.2345 12.5 28.9083 12.5H27.3409C27.0147 12.5 26.7413 12.8018 26.7071 13.1992L26.3409 17.4551C26.2813 18.1475 26.7247 18.75 27.2921 18.75ZM26.7042 29.6875H29.546C30.3028 29.6875 30.8927 28.8838 30.8136 27.9609L30.4102 23.2734C30.3419 22.4785 29.795 21.875 29.1427 21.875H27.1085C26.4561 21.875 25.9093 22.4785 25.8409 23.2734L25.4376 27.9609C25.3575 28.8838 25.9473 29.6875 26.7042 29.6875ZM27.7452 9.375H28.5059C28.8848 9.375 29.1798 8.97266 29.1397 8.51172L29.005 6.94922C28.9708 6.55176 28.6973 6.25 28.3712 6.25H27.88C27.5538 6.25 27.2804 6.55176 27.2462 6.94922L27.1114 8.51172C27.0714 8.97266 27.3663 9.375 27.7452 9.375ZM30.0841 32.8125H26.1661C25.5138 32.8125 24.9669 33.416 24.8985 34.2109L24.2257 42.0234C24.1466 42.9463 24.7364 43.75 25.4932 43.75H30.7559C31.5128 43.75 32.1026 42.9463 32.0235 42.0234L31.3507 34.2109C31.2833 33.416 30.7364 32.8125 30.0841 32.8125ZM15.3663 6.25C15.2121 6.24994 15.0614 6.29554 14.9331 6.38105C14.8049 6.46656 14.7048 6.58815 14.6456 6.73047L0.122154 41.5869C-0.306557 42.6152 0.449302 43.75 1.56454 43.75H4.29891C4.99325 43.75 5.60458 43.292 5.79891 42.625L16.1163 7.25C16.2618 6.75 15.8868 6.25 15.3663 6.25ZM56.128 41.5869L41.6055 6.73047C41.5462 6.58822 41.4461 6.46671 41.3179 6.38121C41.1896 6.29572 41.039 6.25006 40.8848 6.25C40.3643 6.25 39.9893 6.75 40.1348 7.25L50.4522 42.625C50.5468 42.9496 50.7442 43.2347 51.0147 43.4376C51.2851 43.6404 51.6141 43.7501 51.9522 43.75H54.6866C55.8009 43.75 56.5577 42.6152 56.128 41.5869Z" fill="#54B052"/>
</g>
<defs>
<clipPath id="clip0">
<rect width="56.25" height="50" fill="white"/>
</clipPath>
</defs>
</svg>
