<svg width="56" height="50" viewBox="0 0 56 50" fill="none" xmlns="http://www.w3.org/2000/svg">
<path d="M54.1143 15.625C53.921 15.625 53.7277 15.6641 53.5345 15.7422L37.1069 21.875L36.1116 21.5234C38.3631 18.1152 40.1992 14.5703 40.1992 12.0117C40.1992 5.37109 34.6621 0 27.8302 0C20.9983 0 15.4612 5.38086 15.4612 12.0117C15.4612 13.1641 15.8477 14.5313 16.4662 15.9766L1.94232 21.0938C0.773061 21.5625 0 22.7148 0 23.9941V48.4375C0 49.3359 0.724744 50 1.54612 50C1.73939 50 1.93265 49.9609 2.12592 49.8828L18.5535 43.75L35.1743 49.6777C36.4305 50.0977 37.7833 50.1074 39.0396 49.6973L53.7181 44.5312C54.897 44.0527 55.6604 42.9102 55.6604 41.6309V17.1875C55.6604 16.2891 54.9356 15.625 54.1143 15.625ZM17.0073 40.9961L3.08258 46.1914L2.95696 24.0332L17.0073 19.1016V40.9961ZM27.8302 3.125C32.9421 3.125 37.1069 7.10938 37.1069 12.0117C37.1069 14.6484 33.4252 20.6934 27.8302 27.3242C22.2352 20.6934 18.5535 14.6484 18.5535 12.0117C18.5535 7.10938 22.7183 3.125 27.8302 3.125ZM35.5608 46.5039L20.0996 40.9863V22.3438C22.4574 25.791 25.1341 28.9844 26.6416 30.7129C26.9508 31.0742 27.3953 31.25 27.8302 31.25C28.265 31.25 28.6999 31.0742 29.0188 30.7129C30.2557 29.2969 32.2753 26.8945 34.2659 24.1797L35.5608 24.6387V46.5039ZM38.653 46.5234V24.6289L52.5778 19.4336L52.7034 41.5918L38.653 46.5234ZM30.1494 12.5C30.1494 11.2012 29.1057 10.1562 27.8302 10.1562C26.5546 10.1562 25.511 11.2012 25.511 12.5C25.511 13.7891 26.5546 14.8438 27.8302 14.8438C29.1057 14.8438 30.1494 13.7988 30.1494 12.5Z" fill="#54B052"/>
</svg>
