<svg width="50" height="50" viewBox="0 0 50 50" fill="none" xmlns="http://www.w3.org/2000/svg">
<path d="M32.7041 11.8779L36.9737 4.85742C38.3565 2.78027 36.8682 0 34.375 0H15.6397C13.1436 0 11.6553 2.7832 13.041 4.85938L17.2959 11.8789C-0.90525 23.4951 0.00783601 38.3164 0.00783601 40.2344C0.00783601 45.6279 4.80373 50 10.7188 50H39.2832C45.1992 50 49.9942 45.6279 49.9942 40.2344C49.9942 38.3516 50.8028 23.4375 32.7041 11.8779ZM15.6397 3.125H34.375L29.5772 10.9375H20.4239L15.6397 3.125ZM46.875 40.2344C46.875 43.8955 43.4717 46.875 39.2881 46.875H10.7188C6.53518 46.875 3.13186 43.8955 3.13186 40.2344V39.9062C3.04104 34.0605 5.08498 23.0117 19.627 14.0625H30.3789C44.8867 22.9941 46.9492 34.0762 46.875 39.9414V40.2344ZM27.8916 30.3457L23.1065 28.9258C22.5537 28.7676 22.1719 28.2207 22.1719 27.5898C22.1719 26.8223 22.7344 26.2021 23.4258 26.2021H26.4112C26.8919 26.2048 27.3626 26.34 27.7715 26.5928C27.9329 26.7027 28.1265 26.7553 28.3213 26.742C28.5161 26.7287 28.7008 26.6504 28.8457 26.5195L30.0889 25.3311C30.177 25.2483 30.2461 25.1473 30.2913 25.0351C30.3365 24.923 30.3568 24.8024 30.3508 24.6816C30.3447 24.5608 30.3125 24.4428 30.2563 24.3358C30.2001 24.2287 30.1214 24.1351 30.0254 24.0615C29.0533 23.3474 27.8931 22.9342 26.6885 22.873V21.1543C26.687 20.9302 26.5967 20.7158 26.4375 20.558C26.2783 20.4003 26.063 20.312 25.8389 20.3125H24.1406C23.9164 20.312 23.7011 20.4002 23.5417 20.5579C23.3823 20.7157 23.2919 20.9301 23.2901 21.1543V22.8574C20.7715 22.9307 18.753 25.0244 18.753 27.6006C18.753 29.7041 20.1338 31.5762 22.1104 32.165L26.8955 33.585C27.4483 33.7422 27.8311 34.2891 27.8311 34.9199C27.8311 35.6885 27.2676 36.3086 26.5772 36.3086H23.5879C23.1071 36.3062 22.6364 36.171 22.2276 35.918C22.0661 35.8081 21.8724 35.7558 21.6776 35.7692C21.4828 35.7827 21.2982 35.8612 21.1533 35.9922L19.8994 37.1699C19.8115 37.2528 19.7425 37.3538 19.6974 37.4659C19.6523 37.578 19.632 37.6986 19.6381 37.8193C19.6441 37.9401 19.6763 38.058 19.7324 38.1651C19.7885 38.2721 19.8671 38.3658 19.9629 38.4395C20.9352 39.1532 22.0953 39.5663 23.2998 39.6279V41.3418C23.3016 41.566 23.3921 41.7804 23.5515 41.9381C23.7109 42.0959 23.9262 42.1841 24.1504 42.1836H25.8506C26.0747 42.1839 26.2897 42.0955 26.4489 41.9378C26.6081 41.7801 26.6984 41.5658 26.7002 41.3418V39.6484C29.208 39.5859 31.2373 37.4824 31.2481 34.9062C31.25 32.8066 29.8682 30.9346 27.8916 30.3457Z" fill="#54B052"/>
</svg>
