<svg width="50" height="50" viewBox="0 0 50 50" fill="none" xmlns="http://www.w3.org/2000/svg">
<path d="M49.2183 25.8C48.7961 38.8054 38.1176 49.2188 25.0063 49.2188C11.0769 49.2188 -0.106643 37.4654 0.836871 23.3374C1.63903 11.3258 11.3982 1.60906 23.4145 0.832761C30.1653 0.396645 36.3384 2.75842 40.9702 6.83099L44.4482 3.35389C44.5948 3.20736 44.7935 3.12505 45.0008 3.12505C45.208 3.12505 45.4068 3.20736 45.5534 3.35389L46.6582 4.45863C46.7308 4.53117 46.7883 4.6173 46.8276 4.71208C46.8668 4.80687 46.887 4.90846 46.887 5.01106C46.887 5.11365 46.8668 5.21524 46.8275 5.31003C46.7883 5.40481 46.7307 5.49093 46.6582 5.56346L25.8826 26.3336C25.736 26.4802 25.5372 26.5625 25.3299 26.5625C25.1227 26.5625 24.9239 26.4802 24.7773 26.3336L23.6725 25.2291C23.5999 25.1565 23.5424 25.0704 23.5031 24.9756C23.4638 24.8808 23.4436 24.7792 23.4436 24.6766C23.4436 24.574 23.4638 24.4724 23.5031 24.3776C23.5424 24.2828 23.5999 24.1967 23.6725 24.1242L28.1544 19.6434C27.2059 19.0647 26.1174 18.7558 25.0063 18.75C23.7989 18.7499 22.6173 19.0995 21.6042 19.7564C20.5912 20.4133 19.79 21.3495 19.2975 22.4519C18.805 23.5543 18.6422 24.7757 18.8289 25.9686C19.0155 27.1614 19.5435 28.2748 20.3492 29.1741C21.1549 30.0733 22.2037 30.7201 23.369 31.0362C24.5343 31.3523 25.7662 31.3242 26.9159 30.9554C28.0655 30.5865 29.0838 29.8927 29.8477 28.9576C30.6116 28.0226 31.0884 26.8863 31.2205 25.6862C31.2419 25.4969 31.3325 25.3223 31.4748 25.1957C31.617 25.0691 31.801 24.9994 31.9915 25H33.5625C33.6719 25.0004 33.7801 25.0236 33.8801 25.0681C33.9801 25.1126 34.0698 25.1775 34.1433 25.2585C34.2169 25.3396 34.2728 25.435 34.3075 25.5388C34.3421 25.6427 34.3548 25.7526 34.3446 25.8616C34.1208 28.2794 32.9679 30.5162 31.1285 32.1012C29.289 33.6863 26.9065 34.4961 24.4821 34.3603C22.0578 34.2245 19.7806 33.1536 18.1297 31.373C16.4789 29.5923 15.583 27.2408 15.6307 24.8131C15.722 20.1264 19.4218 16.1506 24.0861 15.6723C26.474 15.4275 28.6329 16.1516 30.3877 17.4107L33.7137 14.0856C31.3119 12.1569 28.3196 10.9375 25.0063 10.9375C18.0986 10.9375 12.3685 15.9508 11.1908 22.5229C11.9664 23.0917 12.503 23.9647 12.503 25C12.503 26.0351 11.9664 26.9083 11.1908 27.4771C11.7 30.2968 13.0588 32.8936 15.0852 34.9195C17.1115 36.9454 19.7087 38.3035 22.5286 38.8119C23.0975 38.0365 23.9707 37.5 25.0063 37.5C26.0419 37.5 26.9151 38.0365 27.484 38.8119C33.8157 37.6779 38.7008 32.3219 39.0522 25.7584C39.0594 25.5561 39.1444 25.3644 39.2894 25.2231C39.4344 25.0819 39.6282 25.002 39.8307 25H41.3962C41.5009 24.9993 41.6046 25.0197 41.7012 25.06C41.7979 25.1003 41.8854 25.1597 41.9585 25.2346C42.0317 25.3095 42.089 25.3983 42.127 25.4959C42.165 25.5934 42.183 25.6976 42.1798 25.8022C41.8039 33.9707 35.717 40.6339 27.8217 41.9375C27.5759 42.478 27.1797 42.9363 26.6805 43.2577C26.1812 43.5791 25.6 43.75 25.0063 43.75C24.4125 43.75 23.8313 43.5791 23.3321 43.2577C22.8328 42.9363 22.4367 42.478 22.1909 41.9375C18.6577 41.3502 15.3964 39.6731 12.8635 37.1408C10.3305 34.6085 8.6526 31.3477 8.06446 27.8147C7.52387 27.5691 7.06542 27.1731 6.74391 26.674C6.4224 26.1748 6.25143 25.5937 6.25143 24.9999C6.25143 24.4062 6.4224 23.825 6.74391 23.3258C7.06542 22.8267 7.52387 22.4307 8.06446 22.1851C9.41081 14.0349 16.4727 7.81251 25.0063 7.81251C29.1887 7.81251 32.971 9.36605 35.9499 11.85L38.7483 9.05229C35.0518 5.86187 30.2616 3.90626 25.0063 3.90626C12.5775 3.90626 2.62437 14.7054 4.04181 27.411C5.12137 37.0878 12.9148 44.8794 22.5942 45.959C35.0418 47.3473 45.6603 37.8301 46.0919 25.7636C46.0965 25.5603 46.1802 25.3669 46.3252 25.2243C46.4702 25.0817 46.665 25.0013 46.8684 25H48.4321C48.5366 24.9997 48.6401 25.0202 48.7366 25.0605C48.833 25.1008 48.9205 25.1599 48.9937 25.2345C49.067 25.309 49.1246 25.3974 49.1632 25.4946C49.2017 25.5917 49.2205 25.6956 49.2183 25.8Z" fill="#54B052"/>
</svg>
