<svg width="98" height="30" viewBox="0 0 98 30" fill="none" xmlns="http://www.w3.org/2000/svg">
<g clip-path="url(#clip0)">
<path d="M10.5615 6.32879C10.9932 6.32879 11.3432 5.97881 11.3432 5.54709C11.3432 5.11536 10.9932 4.76538 10.5615 4.76538C10.1298 4.76538 9.77979 5.11536 9.77979 5.54709C9.77979 5.97881 10.1298 6.32879 10.5615 6.32879Z" fill="white"/>
<path d="M18.4563 6.32879C18.888 6.32879 19.238 5.97881 19.238 5.54709C19.238 5.11536 18.888 4.76538 18.4563 4.76538C18.0245 4.76538 17.6746 5.11536 17.6746 5.54709C17.6746 5.97881 18.0245 6.32879 18.4563 6.32879Z" fill="white"/>
<path d="M21.4956 4.29837C21.3359 4.16467 21.098 4.18584 20.9643 4.3456L18.781 6.95517H18.113L15.9297 4.3456C15.796 4.18581 15.5581 4.16471 15.3983 4.29837C15.2386 4.43206 15.2174 4.66989 15.3511 4.82968L17.4481 7.33609L17.4483 13.8103C17.4483 14.0602 17.6509 14.2629 17.9009 14.2629C18.1508 14.2629 18.3534 14.0602 18.3534 13.8103V10.1926H18.5489V13.8103C18.5489 14.0602 18.7515 14.2629 19.0015 14.2629C19.2514 14.2629 19.4541 14.0602 19.4541 13.8103C19.4541 7.85294 19.4458 11.1952 19.4458 7.33609L21.5428 4.82968C21.6766 4.66989 21.6554 4.43203 21.4956 4.29837Z" fill="white"/>
<path d="M13.6009 4.29837C13.4411 4.16467 13.2032 4.18584 13.0696 4.3456L10.8863 6.95517H10.2182L8.03488 4.3456C7.90118 4.18581 7.66336 4.16471 7.50357 4.29837C7.34379 4.43206 7.32265 4.66989 7.45631 4.82968L9.55332 7.33609L9.55349 13.8103C9.55349 14.0602 9.75612 14.2629 10.0061 14.2629C10.256 14.2629 10.4587 14.0602 10.4587 13.8103V10.1926H10.6541V13.8103C10.6541 14.0602 10.8567 14.2629 11.1067 14.2629C11.3566 14.2629 11.5593 14.0602 11.5593 13.8103C11.5593 7.85294 11.5511 11.1952 11.5511 7.33609L13.6481 4.82968C13.7818 4.66989 13.7606 4.43203 13.6009 4.29837Z" fill="white"/>
<path d="M15.002 15.4097C7.29658 15.6995 3.24127 18.5449 0.0359204 22.9109C-0.000135369 22.9599 -0.0512793 23.1102 0.12312 23.1102C0.915709 23.1102 3.21116 23.1102 3.21116 23.1102C4.61422 23.1102 6.31125 17.4267 15.0019 17.4267C23.8091 17.4267 25.3896 23.1102 26.9431 23.1102H29.842C30.0899 23.1102 29.9878 22.9375 29.9243 22.8519C26.731 18.5476 22.6422 15.6971 15.002 15.4097Z" fill="white"/>
<path d="M28.6777 14.8549C28.629 14.8549 28.5892 14.7912 28.5892 14.7132V14.3945C28.5892 14.3166 28.5879 14.2528 28.5879 14.2528C28.5879 14.2528 28.6322 14.2084 28.6882 14.1541C28.6882 14.1541 29.032 13.8209 29.032 13.495C29.032 13.0157 28.6436 12.6273 28.1643 12.6273C27.685 12.6273 27.2965 13.0157 27.2965 13.495C27.2965 13.8209 27.6403 14.1541 27.6403 14.1541C27.6963 14.2084 27.7407 14.2528 27.7407 14.2528C27.7407 14.2528 27.7392 14.3166 27.7392 14.3945V14.7132C27.7392 14.7912 27.6994 14.8549 27.6507 14.8549C27.602 14.8549 27.5621 14.9187 27.5621 14.9966V16.0452C27.5621 16.1691 27.494 16.1427 27.4599 16.1072C26.2721 14.8723 25.0201 13.9185 23.6186 13.1731C23.5842 13.1548 23.5151 13.1364 23.5151 13.0567V11.1797C23.5151 11.1018 23.4753 11.038 23.4266 11.038C23.3778 11.038 23.338 10.9743 23.338 10.8964V10.603C23.338 10.5251 23.3838 10.4169 23.4396 10.3625C23.4396 10.3625 23.7808 10.03 23.7808 9.70525C23.7808 9.22598 23.3924 8.83751 22.913 8.83751C22.4337 8.83751 22.0453 9.22598 22.0453 9.70525C22.0453 10.03 22.3865 10.3625 22.3865 10.3625C22.4422 10.4169 22.488 10.5251 22.488 10.603V10.8964C22.488 10.9743 22.4482 11.038 22.3994 11.038C22.3507 11.038 22.3109 11.1018 22.3109 11.1797V12.4148C22.3109 12.5211 22.2117 12.5159 22.1618 12.4959C20.2481 11.7253 18.0507 11.2765 15.4952 11.1347C15.4736 11.1335 15.4305 11.1265 15.4305 11.0689V9.30977C15.4305 9.23185 15.3906 9.1681 15.3419 9.1681C15.2932 9.1681 15.2534 9.10435 15.2534 9.02643V8.6551C15.2534 8.57711 15.2991 8.46888 15.3549 8.41454C15.3549 8.41454 15.6961 8.08211 15.6961 7.75739C15.6961 7.27812 15.3076 6.88965 14.8284 6.88965C14.3491 6.88965 13.9606 7.27812 13.9606 7.75739C13.9606 8.08211 14.3018 8.41462 14.3018 8.41462C14.3577 8.46902 14.4034 8.57726 14.4034 8.65518V9.0265C14.4034 9.10442 14.3635 9.16817 14.3148 9.16817C14.2661 9.16817 14.2263 9.23193 14.2263 9.30985V11.0336C14.2263 11.1162 14.1561 11.1338 14.1212 11.1358C11.5597 11.2792 9.35818 11.7315 7.44177 12.5073C7.40968 12.5204 7.34578 12.527 7.34578 12.4502V11.1797C7.34578 11.1018 7.3059 11.038 7.25724 11.038C7.20857 11.038 7.16869 10.9743 7.16869 10.8964V10.603C7.16869 10.5251 7.21438 10.4169 7.27013 10.3625C7.27013 10.3625 7.61142 10.03 7.61142 9.70525C7.61142 9.22598 7.22295 8.83751 6.74368 8.83751C6.2644 8.83751 5.87593 9.22598 5.87593 9.70525C5.87593 10.03 6.21715 10.3625 6.21715 10.3625C6.27297 10.4169 6.31866 10.5251 6.31866 10.603V10.8964C6.31866 10.9743 6.27878 11.038 6.23011 11.038C6.18145 11.038 6.14157 11.1018 6.14157 11.1797V13.0346C6.14157 13.1232 6.09616 13.1291 6.07356 13.141C4.64756 13.8911 3.37633 14.8544 2.17133 16.1072C2.14568 16.1338 2.09454 16.1573 2.09454 16.0629V14.9966C2.09454 14.9187 2.05466 14.8549 2.00599 14.8549C1.95733 14.8549 1.91745 14.7912 1.91745 14.7132V14.3945C1.91745 14.3166 1.9161 14.2528 1.9161 14.2528C1.9161 14.2528 1.96045 14.2084 2.01648 14.1541C2.01648 14.1541 2.36025 13.8209 2.36025 13.495C2.36025 13.0157 1.97178 12.6273 1.4925 12.6273C1.01329 12.6273 0.624756 13.0157 0.624756 13.495C0.624756 13.8209 0.968525 14.1541 0.968525 14.1541C1.02449 14.2084 1.0689 14.2528 1.0689 14.2528C1.0689 14.2528 1.06748 14.3166 1.06748 14.3945V14.7132C1.06748 14.7912 1.0276 14.8549 0.978938 14.8549C0.930273 14.8549 0.890392 14.9187 0.890392 14.9966V17.5762L0.889259 17.5777L0.890392 17.5788V20.4963C0.890392 20.6144 0.97993 20.5598 1.02477 20.5097C1.35487 20.1417 1.68957 19.7941 2.03036 19.4665C2.05176 19.4459 2.09454 19.403 2.09454 19.3412V17.8398C2.09454 17.7778 2.12698 17.745 2.14321 17.7259C3.34919 16.3037 4.63622 15.1877 6.08645 14.3404C6.1048 14.3296 6.14157 14.3099 6.14157 14.3764V16.3465C6.14157 16.4793 6.23542 16.4137 6.2826 16.392C6.60229 16.2437 6.92905 16.1043 7.26354 15.9741C7.29089 15.9635 7.34578 15.9437 7.34578 15.8597V13.7553C7.34578 13.6977 7.40564 13.664 7.43568 13.6507C9.33551 12.8075 11.5159 12.3464 14.1285 12.1991C14.161 12.1974 14.2263 12.2086 14.2263 12.2854V14.5271C14.2263 14.5979 14.3016 14.5844 14.3393 14.5823C14.4941 14.574 14.6497 14.5663 14.8071 14.5603L14.8284 14.5595L14.8497 14.5603C15.0088 14.5663 15.1659 14.5741 15.3223 14.5825C15.3586 14.5844 15.4305 14.589 15.4305 14.5226V12.2646C15.4305 12.2027 15.4796 12.198 15.5042 12.1993C18.1043 12.346 20.2766 12.8032 22.1701 13.6389C22.2173 13.6597 22.311 13.7315 22.311 13.8083V15.8153C22.311 15.9097 22.3729 15.9157 22.4038 15.9275C22.7538 16.0604 23.0963 16.2024 23.4305 16.355C23.4587 16.368 23.5152 16.3908 23.5152 16.3023V14.3985C23.5152 14.3336 23.5875 14.3647 23.6234 14.386C25.0327 15.2224 26.2879 16.3148 27.4657 17.6989C27.498 17.7368 27.5621 17.7751 27.5621 17.9285V18.9734C27.5621 19.0856 27.6272 19.1427 27.6598 19.1724C27.9981 19.4823 28.3043 19.7832 28.6313 20.1313C28.6678 20.1701 28.7663 20.1776 28.7663 20.0596V14.9969C28.7663 14.9187 28.7264 14.8549 28.6777 14.8549Z" fill="white"/>
<path d="M2.4101 13.4651C2.4101 13.9642 2.00447 14.3687 1.50542 14.3687C1.00637 14.3687 0.601807 13.9642 0.601807 13.4651C0.601807 12.9661 1.00744 12.5615 1.50649 12.5615C2.00554 12.5615 2.4101 12.9661 2.4101 13.4651Z" fill="white"/>
<path d="M7.65061 9.69878C7.65061 10.1978 7.24605 10.6024 6.747 10.6024C6.24795 10.6024 5.84338 10.1978 5.84338 9.69878C5.84338 9.19973 6.24795 8.79517 6.747 8.79517C7.24605 8.79517 7.65061 9.19973 7.65061 9.69878Z" fill="white"/>
<path d="M15.7229 7.76909C15.7229 8.26814 15.3183 8.67271 14.8193 8.67271C14.3202 8.67271 13.9156 8.26814 13.9156 7.76909C13.9156 7.27004 14.3202 6.86548 14.8193 6.86548C15.3183 6.86548 15.7229 7.27004 15.7229 7.76909Z" fill="white"/>
<path d="M23.8554 9.69072C23.8554 10.1898 23.4509 10.5943 22.9518 10.5943C22.4528 10.5943 22.0482 10.1898 22.0482 9.69072C22.0482 9.19167 22.4528 8.78711 22.9518 8.78711C23.4509 8.78711 23.8554 9.19167 23.8554 9.69072Z" fill="white"/>
<path d="M29.0361 13.5125C29.0361 14.0116 28.6315 14.4161 28.1325 14.4161C27.6334 14.4161 27.2289 14.0116 27.2289 13.5125C27.2289 13.0134 27.6334 12.6089 28.1325 12.6089C28.6315 12.6089 29.0361 13.0134 29.0361 13.5125Z" fill="white"/>
</g>
<path d="M39.9707 22.7917H38V13.2083C38 11.5694 38.4403 10.2917 39.3208 9.375C40.2153 8.45833 41.3964 8 42.864 8C44.4294 8 45.6384 8.44444 46.491 9.33333C47.3575 10.2222 47.7908 11.3542 47.7908 12.7292C47.7908 13.5903 47.6301 14.3403 47.3086 14.9792C47.0011 15.6181 46.5818 16.1111 46.0507 16.4583C45.5196 16.8056 44.9535 17.0625 44.3525 17.2292C43.7515 17.3958 43.1225 17.4792 42.4656 17.4792H40.8932V15.6458H42.6962C43.6327 15.6458 44.3665 15.3681 44.8976 14.8125C45.4427 14.2431 45.7152 13.5347 45.7152 12.6875C45.7152 11.8542 45.4637 11.1736 44.9605 10.6458C44.4713 10.1042 43.7655 9.83333 42.843 9.83333C41.9485 9.83333 41.2426 10.1389 40.7255 10.75C40.2223 11.3472 39.9707 12.1389 39.9707 13.125V22.7917Z" fill="white"/>
<path d="M61.4682 15.5625C61.4543 14.7847 61.3355 14.0486 61.1118 13.3542C60.9022 12.6597 60.5877 12.0556 60.1684 11.5417C59.7631 11.0139 59.2669 10.5972 58.6798 10.2917C58.0928 9.98611 57.4289 9.83333 56.6881 9.83333C55.9474 9.83333 55.2835 9.98611 54.6964 10.2917C54.1094 10.5972 53.6062 11.0139 53.1869 11.5417C52.7816 12.0556 52.4671 12.6597 52.2435 13.3542C52.0338 14.0486 51.922 14.7847 51.908 15.5625C51.922 16.3542 52.0338 17.0903 52.2435 17.7708C52.4671 18.4514 52.7816 19.0417 53.1869 19.5417C53.6062 20.0417 54.1094 20.4375 54.6964 20.7292C55.2835 21.0208 55.9474 21.1667 56.6881 21.1667C57.4289 21.1667 58.0928 21.0208 58.6798 20.7292C59.2669 20.4375 59.7631 20.0417 60.1684 19.5417C60.5877 19.0417 60.9022 18.4514 61.1118 17.7708C61.3355 17.0903 61.4543 16.3542 61.4682 15.5625ZM49.7905 15.5625C49.8045 14.4097 49.9792 13.3681 50.3147 12.4375C50.6501 11.5069 51.1183 10.7153 51.7194 10.0625C52.3204 9.39583 53.0402 8.88889 53.8788 8.54167C54.7174 8.18056 55.6538 8 56.6881 8C57.7085 8 58.6379 8.18056 59.4765 8.54167C60.3291 8.88889 61.0559 9.39583 61.6569 10.0625C62.2579 10.7153 62.7262 11.5069 63.0616 12.4375C63.397 13.3681 63.5718 14.4097 63.5857 15.5625C63.5718 16.7153 63.397 17.75 63.0616 18.6667C62.7401 19.5833 62.2789 20.3611 61.6779 21C61.0769 21.6389 60.3501 22.1319 59.4975 22.4792C58.6589 22.8264 57.7224 23 56.6881 23C55.6538 23 54.7104 22.8264 53.8578 22.4792C53.0192 22.1319 52.2994 21.6389 51.6984 21C51.0974 20.3611 50.6292 19.5833 50.2937 18.6667C49.9722 17.75 49.8045 16.7153 49.7905 15.5625Z" fill="white"/>
<path d="M68.2887 22.7917H66.3179V8.20833H71.4964C73.2295 8.20833 74.5224 8.59722 75.375 9.375C76.2276 10.1389 76.6538 11.3472 76.6538 13V22.7917H74.6831V12.7292C74.6831 11.7847 74.3896 11.1042 73.8026 10.6875C73.2295 10.2569 72.4678 10.0417 71.5173 10.0417H68.2887V22.7917Z" fill="white"/>
<path d="M78.5393 10.0417V8.20833H87.764V10.0417H84.137V22.7917H82.1663V10.0417H78.5393Z" fill="white"/>
<path d="M98 22.7917H89.6558V11.6875C89.6558 10.6597 89.9843 9.83333 90.6412 9.20833C91.0884 8.79167 91.5916 8.52083 92.1507 8.39583C92.7097 8.27083 93.3946 8.20833 94.2053 8.20833H98V10.0417H93.9327C92.3953 10.0417 91.6265 10.6806 91.6265 11.9583V14.3333H96.4695V16.1667H91.6265V20.9583H98V22.7917Z" fill="white"/>
<defs>
<clipPath id="clip0">
<rect width="30" height="30" fill="white"/>
</clipPath>
</defs>
</svg>
