<svg width="250" height="250" viewBox="0 0 250 250" fill="none" xmlns="http://www.w3.org/2000/svg">
<path d="M250 0H0V250H250V0Z" fill="white"/>
<path d="M94.8276 17.2415H86.2069V25.8621H94.8276V17.2415Z" fill="black"/>
<path d="M103.448 17.2415H94.8275V25.8621H103.448V17.2415Z" fill="black"/>
<path d="M129.31 17.2415H120.69V25.8621H129.31V17.2415Z" fill="black"/>
<path d="M137.931 17.2415H129.31V25.8621H137.931V17.2415Z" fill="black"/>
<path d="M146.552 17.2415H137.931V25.8621H146.552V17.2415Z" fill="black"/>
<path d="M163.793 17.2415H155.172V25.8621H163.793V17.2415Z" fill="black"/>
<path d="M103.448 25.8621H94.8275V34.4827H103.448V25.8621Z" fill="black"/>
<path d="M112.069 25.8621H103.448V34.4827H112.069V25.8621Z" fill="black"/>
<path d="M120.69 25.8621H112.069V34.4827H120.69V25.8621Z" fill="black"/>
<path d="M129.31 25.8621H120.69V34.4827H129.31V25.8621Z" fill="black"/>
<path d="M163.793 25.8621H155.172V34.4827H163.793V25.8621Z" fill="black"/>
<path d="M94.8276 34.4829H86.2069V43.1036H94.8276V34.4829Z" fill="black"/>
<path d="M103.448 34.4829H94.8275V43.1036H103.448V34.4829Z" fill="black"/>
<path d="M137.931 34.4829H129.31V43.1036H137.931V34.4829Z" fill="black"/>
<path d="M146.552 34.4829H137.931V43.1036H146.552V34.4829Z" fill="black"/>
<path d="M112.069 43.1035H103.448V51.7242H112.069V43.1035Z" fill="black"/>
<path d="M137.931 43.1035H129.31V51.7242H137.931V43.1035Z" fill="black"/>
<path d="M155.172 43.1035H146.552V51.7242H155.172V43.1035Z" fill="black"/>
<path d="M112.069 51.7241H103.448V60.3448H112.069V51.7241Z" fill="black"/>
<path d="M120.69 51.7241H112.069V60.3448H120.69V51.7241Z" fill="black"/>
<path d="M94.8276 60.345H86.2069V68.9657H94.8276V60.345Z" fill="black"/>
<path d="M120.69 60.345H112.069V68.9657H120.69V60.345Z" fill="black"/>
<path d="M129.31 60.345H120.69V68.9657H129.31V60.345Z" fill="black"/>
<path d="M137.931 60.345H129.31V68.9657H137.931V60.345Z" fill="black"/>
<path d="M94.8276 68.9656H86.2069V77.5863H94.8276V68.9656Z" fill="black"/>
<path d="M112.069 68.9656H103.448V77.5863H112.069V68.9656Z" fill="black"/>
<path d="M129.31 68.9656H120.69V77.5863H129.31V68.9656Z" fill="black"/>
<path d="M146.552 68.9656H137.931V77.5863H146.552V68.9656Z" fill="black"/>
<path d="M163.793 68.9656H155.172V77.5863H163.793V68.9656Z" fill="black"/>
<path d="M112.069 77.5862H103.448V86.2069H112.069V77.5862Z" fill="black"/>
<path d="M120.69 77.5862H112.069V86.2069H120.69V77.5862Z" fill="black"/>
<path d="M129.31 77.5862H120.69V86.2069H129.31V77.5862Z" fill="black"/>
<path d="M163.793 77.5862H155.172V86.2069H163.793V77.5862Z" fill="black"/>
<path d="M25.862 86.207H17.2413V94.8277H25.862V86.207Z" fill="black"/>
<path d="M43.1034 86.207H34.4827V94.8277H43.1034V86.207Z" fill="black"/>
<path d="M77.5862 86.207H68.9655V94.8277H77.5862V86.207Z" fill="black"/>
<path d="M86.2069 86.207H77.5862V94.8277H86.2069V86.207Z" fill="black"/>
<path d="M112.069 86.207H103.448V94.8277H112.069V86.207Z" fill="black"/>
<path d="M137.931 86.207H129.31V94.8277H137.931V86.207Z" fill="black"/>
<path d="M163.793 86.207H155.172V94.8277H163.793V86.207Z" fill="black"/>
<path d="M189.655 86.207H181.034V94.8277H189.655V86.207Z" fill="black"/>
<path d="M215.517 86.207H206.896V94.8277H215.517V86.207Z" fill="black"/>
<path d="M232.759 86.207H224.138V94.8277H232.759V86.207Z" fill="black"/>
<path d="M43.1034 94.8276H34.4827V103.448H43.1034V94.8276Z" fill="black"/>
<path d="M51.7241 94.8276H43.1034V103.448H51.7241V94.8276Z" fill="black"/>
<path d="M60.3448 94.8276H51.7241V103.448H60.3448V94.8276Z" fill="black"/>
<path d="M68.9654 94.8276H60.3447V103.448H68.9654V94.8276Z" fill="black"/>
<path d="M94.8276 94.8276H86.2069V103.448H94.8276V94.8276Z" fill="black"/>
<path d="M103.448 94.8276H94.8275V103.448H103.448V94.8276Z" fill="black"/>
<path d="M112.069 94.8276H103.448V103.448H112.069V94.8276Z" fill="black"/>
<path d="M155.172 94.8276H146.552V103.448H155.172V94.8276Z" fill="black"/>
<path d="M163.793 94.8276H155.172V103.448H163.793V94.8276Z" fill="black"/>
<path d="M181.034 94.8276H172.414V103.448H181.034V94.8276Z" fill="black"/>
<path d="M232.759 94.8276H224.138V103.448H232.759V94.8276Z" fill="black"/>
<path d="M25.862 103.448H17.2413V112.069H25.862V103.448Z" fill="black"/>
<path d="M34.4827 103.448H25.8621V112.069H34.4827V103.448Z" fill="black"/>
<path d="M77.5862 103.448H68.9655V112.069H77.5862V103.448Z" fill="black"/>
<path d="M112.069 103.448H103.448V112.069H112.069V103.448Z" fill="black"/>
<path d="M120.69 103.448H112.069V112.069H120.69V103.448Z" fill="black"/>
<path d="M129.31 103.448H120.69V112.069H129.31V103.448Z" fill="black"/>
<path d="M137.931 103.448H129.31V112.069H137.931V103.448Z" fill="black"/>
<path d="M155.172 103.448H146.552V112.069H155.172V103.448Z" fill="black"/>
<path d="M163.793 103.448H155.172V112.069H163.793V103.448Z" fill="black"/>
<path d="M172.414 103.448H163.793V112.069H172.414V103.448Z" fill="black"/>
<path d="M181.034 103.448H172.414V112.069H181.034V103.448Z" fill="black"/>
<path d="M198.276 103.448H189.655V112.069H198.276V103.448Z" fill="black"/>
<path d="M206.897 103.448H198.276V112.069H206.897V103.448Z" fill="black"/>
<path d="M215.517 103.448H206.896V112.069H215.517V103.448Z" fill="black"/>
<path d="M224.138 103.448H215.517V112.069H224.138V103.448Z" fill="black"/>
<path d="M232.759 103.448H224.138V112.069H232.759V103.448Z" fill="black"/>
<path d="M25.862 112.069H17.2413V120.69H25.862V112.069Z" fill="black"/>
<path d="M51.7241 112.069H43.1034V120.69H51.7241V112.069Z" fill="black"/>
<path d="M60.3448 112.069H51.7241V120.69H60.3448V112.069Z" fill="black"/>
<path d="M68.9654 112.069H60.3447V120.69H68.9654V112.069Z" fill="black"/>
<path d="M94.8276 112.069H86.2069V120.69H94.8276V112.069Z" fill="black"/>
<path d="M103.448 112.069H94.8275V120.69H103.448V112.069Z" fill="black"/>
<path d="M112.069 112.069H103.448V120.69H112.069V112.069Z" fill="black"/>
<path d="M120.69 112.069H112.069V120.69H120.69V112.069Z" fill="black"/>
<path d="M189.655 112.069H181.034V120.69H189.655V112.069Z" fill="black"/>
<path d="M198.276 112.069H189.655V120.69H198.276V112.069Z" fill="black"/>
<path d="M206.897 112.069H198.276V120.69H206.897V112.069Z" fill="black"/>
<path d="M224.138 112.069H215.517V120.69H224.138V112.069Z" fill="black"/>
<path d="M25.862 120.69H17.2413V129.31H25.862V120.69Z" fill="black"/>
<path d="M34.4827 120.69H25.8621V129.31H34.4827V120.69Z" fill="black"/>
<path d="M60.3448 120.69H51.7241V129.31H60.3448V120.69Z" fill="black"/>
<path d="M77.5862 120.69H68.9655V129.31H77.5862V120.69Z" fill="black"/>
<path d="M94.8276 120.69H86.2069V129.31H94.8276V120.69Z" fill="black"/>
<path d="M103.448 120.69H94.8275V129.31H103.448V120.69Z" fill="black"/>
<path d="M137.931 120.69H129.31V129.31H137.931V120.69Z" fill="black"/>
<path d="M146.552 120.69H137.931V129.31H146.552V120.69Z" fill="black"/>
<path d="M155.172 120.69H146.552V129.31H155.172V120.69Z" fill="black"/>
<path d="M181.034 120.69H172.414V129.31H181.034V120.69Z" fill="black"/>
<path d="M189.655 120.69H181.034V129.31H189.655V120.69Z" fill="black"/>
<path d="M224.138 120.69H215.517V129.31H224.138V120.69Z" fill="black"/>
<path d="M43.1034 129.311H34.4827V137.931H43.1034V129.311Z" fill="black"/>
<path d="M51.7241 129.311H43.1034V137.931H51.7241V129.311Z" fill="black"/>
<path d="M60.3448 129.311H51.7241V137.931H60.3448V129.311Z" fill="black"/>
<path d="M68.9654 129.311H60.3447V137.931H68.9654V129.311Z" fill="black"/>
<path d="M86.2069 129.311H77.5862V137.931H86.2069V129.311Z" fill="black"/>
<path d="M94.8276 129.311H86.2069V137.931H94.8276V129.311Z" fill="black"/>
<path d="M137.931 129.311H129.31V137.931H137.931V129.311Z" fill="black"/>
<path d="M155.172 129.311H146.552V137.931H155.172V129.311Z" fill="black"/>
<path d="M163.793 129.311H155.172V137.931H163.793V129.311Z" fill="black"/>
<path d="M181.034 129.311H172.414V137.931H181.034V129.311Z" fill="black"/>
<path d="M189.655 129.311H181.034V137.931H189.655V129.311Z" fill="black"/>
<path d="M25.862 137.931H17.2413V146.552H25.862V137.931Z" fill="black"/>
<path d="M34.4827 137.931H25.8621V146.552H34.4827V137.931Z" fill="black"/>
<path d="M60.3448 137.931H51.7241V146.552H60.3448V137.931Z" fill="black"/>
<path d="M68.9654 137.931H60.3447V146.552H68.9654V137.931Z" fill="black"/>
<path d="M77.5862 137.931H68.9655V146.552H77.5862V137.931Z" fill="black"/>
<path d="M86.2069 137.931H77.5862V146.552H86.2069V137.931Z" fill="black"/>
<path d="M120.69 137.931H112.069V146.552H120.69V137.931Z" fill="black"/>
<path d="M155.172 137.931H146.552V146.552H155.172V137.931Z" fill="black"/>
<path d="M181.034 137.931H172.414V146.552H181.034V137.931Z" fill="black"/>
<path d="M198.276 137.931H189.655V146.552H198.276V137.931Z" fill="black"/>
<path d="M224.138 137.931H215.517V146.552H224.138V137.931Z" fill="black"/>
<path d="M51.7241 146.552H43.1034V155.172H51.7241V146.552Z" fill="black"/>
<path d="M60.3448 146.552H51.7241V155.172H60.3448V146.552Z" fill="black"/>
<path d="M68.9654 146.552H60.3447V155.172H68.9654V146.552Z" fill="black"/>
<path d="M86.2069 146.552H77.5862V155.172H86.2069V146.552Z" fill="black"/>
<path d="M112.069 146.552H103.448V155.172H112.069V146.552Z" fill="black"/>
<path d="M137.931 146.552H129.31V155.172H137.931V146.552Z" fill="black"/>
<path d="M163.793 146.552H155.172V155.172H163.793V146.552Z" fill="black"/>
<path d="M172.414 146.552H163.793V155.172H172.414V146.552Z" fill="black"/>
<path d="M189.655 146.552H181.034V155.172H189.655V146.552Z" fill="black"/>
<path d="M206.897 146.552H198.276V155.172H206.897V146.552Z" fill="black"/>
<path d="M215.517 146.552H206.896V155.172H215.517V146.552Z" fill="black"/>
<path d="M224.138 146.552H215.517V155.172H224.138V146.552Z" fill="black"/>
<path d="M232.759 146.552H224.138V155.172H232.759V146.552Z" fill="black"/>
<path d="M25.862 155.173H17.2413V163.793H25.862V155.173Z" fill="black"/>
<path d="M34.4827 155.173H25.8621V163.793H34.4827V155.173Z" fill="black"/>
<path d="M68.9654 155.173H60.3447V163.793H68.9654V155.173Z" fill="black"/>
<path d="M77.5862 155.173H68.9655V163.793H77.5862V155.173Z" fill="black"/>
<path d="M103.448 155.173H94.8275V163.793H103.448V155.173Z" fill="black"/>
<path d="M120.69 155.173H112.069V163.793H120.69V155.173Z" fill="black"/>
<path d="M129.31 155.173H120.69V163.793H129.31V155.173Z" fill="black"/>
<path d="M137.931 155.173H129.31V163.793H137.931V155.173Z" fill="black"/>
<path d="M163.793 155.173H155.172V163.793H163.793V155.173Z" fill="black"/>
<path d="M172.414 155.173H163.793V163.793H172.414V155.173Z" fill="black"/>
<path d="M181.034 155.173H172.414V163.793H181.034V155.173Z" fill="black"/>
<path d="M189.655 155.173H181.034V163.793H189.655V155.173Z" fill="black"/>
<path d="M198.276 155.173H189.655V163.793H198.276V155.173Z" fill="black"/>
<path d="M206.897 155.173H198.276V163.793H206.897V155.173Z" fill="black"/>
<path d="M215.517 155.173H206.896V163.793H215.517V155.173Z" fill="black"/>
<path d="M224.138 155.173H215.517V163.793H224.138V155.173Z" fill="black"/>
<path d="M232.759 155.173H224.138V163.793H232.759V155.173Z" fill="black"/>
<path d="M94.8276 163.793H86.2069V172.414H94.8276V163.793Z" fill="black"/>
<path d="M103.448 163.793H94.8275V172.414H103.448V163.793Z" fill="black"/>
<path d="M129.31 163.793H120.69V172.414H129.31V163.793Z" fill="black"/>
<path d="M163.793 163.793H155.172V172.414H163.793V163.793Z" fill="black"/>
<path d="M198.276 163.793H189.655V172.414H198.276V163.793Z" fill="black"/>
<path d="M94.8276 172.414H86.2069V181.034H94.8276V172.414Z" fill="black"/>
<path d="M129.31 172.414H120.69V181.034H129.31V172.414Z" fill="black"/>
<path d="M137.931 172.414H129.31V181.034H137.931V172.414Z" fill="black"/>
<path d="M146.552 172.414H137.931V181.034H146.552V172.414Z" fill="black"/>
<path d="M163.793 172.414H155.172V181.034H163.793V172.414Z" fill="black"/>
<path d="M181.034 172.414H172.414V181.034H181.034V172.414Z" fill="black"/>
<path d="M198.276 172.414H189.655V181.034H198.276V172.414Z" fill="black"/>
<path d="M103.448 181.035H94.8275V189.655H103.448V181.035Z" fill="black"/>
<path d="M112.069 181.035H103.448V189.655H112.069V181.035Z" fill="black"/>
<path d="M120.69 181.035H112.069V189.655H120.69V181.035Z" fill="black"/>
<path d="M129.31 181.035H120.69V189.655H129.31V181.035Z" fill="black"/>
<path d="M146.552 181.035H137.931V189.655H146.552V181.035Z" fill="black"/>
<path d="M155.172 181.035H146.552V189.655H155.172V181.035Z" fill="black"/>
<path d="M163.793 181.035H155.172V189.655H163.793V181.035Z" fill="black"/>
<path d="M198.276 181.035H189.655V189.655H198.276V181.035Z" fill="black"/>
<path d="M215.517 181.035H206.896V189.655H215.517V181.035Z" fill="black"/>
<path d="M103.448 189.655H94.8275V198.276H103.448V189.655Z" fill="black"/>
<path d="M137.931 189.655H129.31V198.276H137.931V189.655Z" fill="black"/>
<path d="M146.552 189.655H137.931V198.276H146.552V189.655Z" fill="black"/>
<path d="M155.172 189.655H146.552V198.276H155.172V189.655Z" fill="black"/>
<path d="M163.793 189.655H155.172V198.276H163.793V189.655Z" fill="black"/>
<path d="M172.414 189.655H163.793V198.276H172.414V189.655Z" fill="black"/>
<path d="M181.034 189.655H172.414V198.276H181.034V189.655Z" fill="black"/>
<path d="M189.655 189.655H181.034V198.276H189.655V189.655Z" fill="black"/>
<path d="M198.276 189.655H189.655V198.276H198.276V189.655Z" fill="black"/>
<path d="M232.759 189.655H224.138V198.276H232.759V189.655Z" fill="black"/>
<path d="M103.448 198.276H94.8275V206.897H103.448V198.276Z" fill="black"/>
<path d="M137.931 198.276H129.31V206.897H137.931V198.276Z" fill="black"/>
<path d="M146.552 198.276H137.931V206.897H146.552V198.276Z" fill="black"/>
<path d="M155.172 198.276H146.552V206.897H155.172V198.276Z" fill="black"/>
<path d="M172.414 198.276H163.793V206.897H172.414V198.276Z" fill="black"/>
<path d="M189.655 198.276H181.034V206.897H189.655V198.276Z" fill="black"/>
<path d="M198.276 198.276H189.655V206.897H198.276V198.276Z" fill="black"/>
<path d="M224.138 198.276H215.517V206.897H224.138V198.276Z" fill="black"/>
<path d="M94.8276 206.897H86.2069V215.517H94.8276V206.897Z" fill="black"/>
<path d="M103.448 206.897H94.8275V215.517H103.448V206.897Z" fill="black"/>
<path d="M112.069 206.897H103.448V215.517H112.069V206.897Z" fill="black"/>
<path d="M120.69 206.897H112.069V215.517H120.69V206.897Z" fill="black"/>
<path d="M163.793 206.897H155.172V215.517H163.793V206.897Z" fill="black"/>
<path d="M198.276 206.897H189.655V215.517H198.276V206.897Z" fill="black"/>
<path d="M224.138 206.897H215.517V215.517H224.138V206.897Z" fill="black"/>
<path d="M232.759 206.897H224.138V215.517H232.759V206.897Z" fill="black"/>
<path d="M103.448 215.517H94.8275V224.138H103.448V215.517Z" fill="black"/>
<path d="M112.069 215.517H103.448V224.138H112.069V215.517Z" fill="black"/>
<path d="M137.931 215.517H129.31V224.138H137.931V215.517Z" fill="black"/>
<path d="M163.793 215.517H155.172V224.138H163.793V215.517Z" fill="black"/>
<path d="M181.034 215.517H172.414V224.138H181.034V215.517Z" fill="black"/>
<path d="M94.8276 224.138H86.2069V232.759H94.8276V224.138Z" fill="black"/>
<path d="M103.448 224.138H94.8275V232.759H103.448V224.138Z" fill="black"/>
<path d="M112.069 224.138H103.448V232.759H112.069V224.138Z" fill="black"/>
<path d="M120.69 224.138H112.069V232.759H120.69V224.138Z" fill="black"/>
<path d="M129.31 224.138H120.69V232.759H129.31V224.138Z" fill="black"/>
<path d="M137.931 224.138H129.31V232.759H137.931V224.138Z" fill="black"/>
<path d="M163.793 224.138H155.172V232.759H163.793V224.138Z" fill="black"/>
<path d="M172.414 224.138H163.793V232.759H172.414V224.138Z" fill="black"/>
<path d="M181.034 224.138H172.414V232.759H181.034V224.138Z" fill="black"/>
<path d="M189.655 224.138H181.034V232.759H189.655V224.138Z" fill="black"/>
<path d="M198.276 224.138H189.655V232.759H198.276V224.138Z" fill="black"/>
<path d="M206.897 224.138H198.276V232.759H206.897V224.138Z" fill="black"/>
<path d="M232.759 224.138H224.138V232.759H232.759V224.138Z" fill="black"/>
<path d="M68.5344 17.2415H26.2931H17.2413V26.2932V68.5346V77.5863H26.2931H68.5344H77.5862V68.5346V26.2932V17.2415H68.5344ZM68.5344 68.5346H26.2931V26.2932H68.5344V68.5346Z" fill="black"/>
<path d="M223.707 17.2415H181.466H172.414V26.2932V68.5346V77.5863H181.466H223.707H232.759V68.5346V26.2932V17.2415H223.707ZM223.707 68.5346H181.466V26.2932H223.707V68.5346Z" fill="black"/>
<path d="M68.5344 172.414H26.2931H17.2413V181.466V223.707V232.759H26.2931H68.5344H77.5862V223.707V181.466V172.414H68.5344ZM68.5344 223.707H26.2931V181.466H68.5344V223.707Z" fill="black"/>
<path d="M60.3447 34.4829H34.4827V60.345H60.3447V34.4829Z" fill="black"/>
<path d="M215.517 34.4829H189.655V60.345H215.517V34.4829Z" fill="black"/>
<path d="M60.3447 189.655H34.4827V215.517H60.3447V189.655Z" fill="black"/>
</svg>
