<svg width="66" height="32" viewBox="0 0 66 32" fill="none" xmlns="http://www.w3.org/2000/svg">
<path d="M2.44643 14.2324L1.83632 14.2354L0.098999 13.7672L0.417419 12.6026L1.83034 13.0152L2.57391 13.0115C3.4001 13.0075 3.81082 12.5224 3.80609 11.5564L3.75378 0.879586L5.08838 0.873047L5.14069 11.5499C5.14493 12.4142 4.91302 13.0763 4.44497 13.5362C3.98964 13.996 3.32346 14.2281 2.44643 14.2324Z" fill="white"/>
<path d="M12.1711 5.8909L10.1501 5.90081C9.48914 5.90404 9.16034 6.24885 9.16371 6.93522L9.18827 11.9495C9.19164 12.6359 9.52379 12.9775 10.1847 12.9742L12.2057 12.9643C12.8667 12.9611 13.1955 12.6163 13.1921 11.9299L13.1675 6.9156C13.1642 6.22923 12.832 5.88767 12.1711 5.8909ZM12.2498 14.1843L10.1526 14.1946C9.40267 14.1983 8.82973 14.0041 8.43377 13.612C8.05052 13.2198 7.85709 12.6551 7.85348 11.9179L7.82919 6.96082C7.82564 6.23632 8.01356 5.67612 8.39295 5.28023C8.78498 4.87156 9.35596 4.66539 10.1059 4.66172L12.2031 4.65144C12.953 4.64777 13.5197 4.84836 13.903 5.25323C14.2989 5.64533 14.4987 6.20363 14.5022 6.92813L14.5265 11.8852C14.5301 12.6224 14.3359 13.189 13.9438 13.585C13.5644 13.9809 12.9997 14.1807 12.2498 14.1843Z" fill="white"/>
<path d="M22.8052 6.14386L20.3086 14.1449L19.0121 14.1512L15.953 4.63307L17.2876 4.62653L19.1278 10.5281L19.6143 12.5467L19.6906 12.5463L20.1383 10.5231C20.7385 8.51185 21.1951 7.00338 21.5079 5.99769L21.6911 4.47149L22.9884 4.63673L22.8052 6.14386Z" fill="white"/>
<path d="M27.0772 14.1117C26.3273 14.1154 25.7544 13.9212 25.3584 13.5291C24.9751 13.1369 24.7817 12.5722 24.7781 11.835L24.7538 6.8779C24.7503 6.1534 24.9382 5.5932 25.3176 5.19731C25.7096 4.78864 26.2806 4.58247 27.0305 4.57879L28.8418 4.56992C29.5917 4.56625 30.1583 4.76684 30.5416 5.17171C30.9376 5.56381 31.1373 6.12211 31.1409 6.84661L31.1506 8.82945L30.1065 9.76881L26.1027 9.78843L26.1129 11.8666C26.1163 12.553 26.4484 12.8945 27.1094 12.8913L29.1113 12.8815L30.6534 12.4163L31.0022 13.5777L29.1173 14.1017L27.0772 14.1117ZM26.0883 6.8523L26.0967 8.56822L29.5476 8.55131L29.8135 8.34028L29.8062 6.83408C29.8028 6.14771 29.4706 5.80615 28.8097 5.80938L27.0747 5.81788C26.4138 5.82112 26.085 6.16593 26.0883 6.8523Z" fill="white"/>
<path d="M43.2462 12.5072L43.2192 6.99716C43.2169 6.52687 43.1327 6.20315 42.9666 6.02602C42.8004 5.83617 42.5139 5.74224 42.1072 5.74423L39.5971 7.09117L39.6311 14.0502L38.2965 14.0567L38.2621 7.02145C38.2598 6.56387 38.1756 6.24015 38.0095 6.0503C37.8433 5.86046 37.5568 5.76653 37.1501 5.76852L34.659 7.11536L34.6931 14.0744L33.3585 14.0809L33.3181 5.84449L33.1213 4.58708L34.417 4.40914L34.5952 5.76197L36.7436 4.5312L37.2965 4.5285C38.3897 4.52314 39.1035 4.94546 39.4382 5.79544L41.7007 4.50692L42.2537 4.50421C42.9909 4.5006 43.5575 4.70119 43.9535 5.106C44.3495 5.4981 44.5492 6.05639 44.5528 6.78089L44.5812 12.5769L44.7789 14.025L43.4641 14.1839L43.2462 12.5072Z" fill="white"/>
<path d="M1.26358 17.972L6.75453 17.9451C7.49174 17.9415 8.05835 18.1421 8.45437 18.5469C8.85033 18.939 9.05008 19.4973 9.05363 20.2218L9.07092 23.7489C9.07446 24.4734 8.88022 25.04 8.48819 25.4487C8.09609 25.8446 7.53144 26.0444 6.79423 26.048L2.63788 26.0684L2.66357 31.3115L1.32896 31.318L1.26358 17.972ZM2.60425 19.2047L2.6319 24.8482L6.75012 24.828C7.41107 24.8248 7.73986 24.48 7.7365 23.7936L7.71893 20.2092C7.71557 19.5229 7.38342 19.1813 6.72247 19.1845L2.60425 19.2047Z" fill="white"/>
<path d="M11.0899 22.2709L12.9939 21.7278L15.1674 21.7171C15.9173 21.7134 16.4839 21.914 16.8672 22.3189C17.2632 22.711 17.4629 23.2693 17.4665 23.9938L17.4946 29.7326L17.7117 31.2378L16.3969 31.3967L16.1789 29.7009L14.0511 31.2557L13.1168 31.2603C12.3796 31.2639 11.813 31.0697 11.4171 30.6776C11.0211 30.2728 10.8213 29.7081 10.8177 28.9836L10.812 27.8206C10.8085 27.0961 11.0028 26.5359 11.3949 26.1399C11.7869 25.7312 12.3515 25.5251 13.0887 25.5215L16.1393 25.5065L16.1318 23.9813C16.1284 23.2949 15.7963 22.9533 15.1353 22.9566L12.9999 22.967L11.4388 23.4323L11.0899 22.2709ZM13.149 30.0399L13.7019 30.0372L16.1526 28.2329L16.145 26.6886L13.1327 26.7034C12.4717 26.7066 12.1429 27.0514 12.1463 27.7378L12.1525 29.0152C12.1559 29.7016 12.488 30.0431 13.149 30.0399Z" fill="white"/>
<path d="M22.8292 29.9925L25.244 28.646L25.218 23.3266L23.0424 22.9178L22.1845 22.922C21.5235 22.9253 21.1947 23.2701 21.1981 23.9564L21.2226 28.9708C21.226 29.6571 21.5582 29.9987 22.2191 29.9954L22.8292 29.9925ZM25.1949 18.6174L24.9774 17.0359L26.2921 16.8579L26.5295 18.6108L26.5839 29.7071L26.7819 31.2124L25.4862 31.3713L25.2887 29.9804L23.1402 31.2112L22.187 31.2158C21.4497 31.2195 20.8832 31.0252 20.4872 30.6331C20.0912 30.2283 19.8914 29.6637 19.8878 28.9392L19.8636 23.9821C19.86 23.2576 20.0543 22.6973 20.4464 22.3014C20.8384 21.8927 21.403 21.6866 22.1402 21.6829L23.0363 21.6786L25.2119 22.0874L25.1949 18.6174Z" fill="white"/>
<path d="M29.2434 22.182L31.1473 21.6388L33.3209 21.6282C34.0708 21.6245 34.6374 21.8251 35.0207 22.23C35.4167 22.6221 35.6164 23.1804 35.62 23.9049L35.6481 29.6437L35.8652 31.1488L34.5504 31.3078L34.3323 29.612L32.2045 31.1668L31.2703 31.1713C30.5331 31.175 29.9665 30.9807 29.5706 30.5886C29.1745 30.1838 28.9748 29.6192 28.9712 28.8947L28.9655 27.7316C28.962 27.0071 29.1562 26.4469 29.5483 26.051C29.9404 25.6423 30.505 25.4361 31.2422 25.4325L34.2927 25.4176L34.2853 23.8923C34.2819 23.206 33.9497 22.8644 33.2888 22.8676L31.1534 22.8781L29.5923 23.3433L29.2434 22.182ZM31.3025 29.9509L31.8554 29.9482L34.3061 28.144L34.2985 26.5997L31.2861 26.6144C30.6252 26.6177 30.2964 26.9625 30.2997 27.6488L30.306 28.9263C30.3094 29.6126 30.6415 29.9542 31.3025 29.9509Z" fill="white"/>
<path d="M43.3844 25.8878L42.9151 23.4878L42.8388 23.4882L42.393 25.8927L41.2365 31.1225L39.8447 31.1293L37.2623 21.6089L38.5969 21.6023L40.0939 27.5055L40.466 29.5247L40.5423 29.5243L40.8756 27.5017L42.2956 21.5842L43.4396 21.5786L44.9175 27.4819L45.2897 29.5011L45.366 29.5007L45.6992 27.4781L46.802 22.954L46.9661 21.4278L48.2444 21.5932L48.0611 23.1003L45.9839 31.0993L44.5921 31.1061L43.3844 25.8878Z" fill="white"/>
<path d="M50.0221 22.0802L51.9261 21.537L54.0996 21.5264C54.8495 21.5227 55.4161 21.7233 55.7994 22.1282C56.1954 22.5202 56.3952 23.0785 56.3987 23.803L56.4268 29.5419L56.6439 31.047L55.3291 31.206L55.1111 29.5102L52.9833 31.065L52.0491 31.0695C51.3119 31.0732 50.7453 30.8789 50.3493 30.4868C49.9533 30.082 49.7535 29.5174 49.75 28.7929L49.7443 27.6298C49.7407 26.9053 49.935 26.3451 50.3271 25.9492C50.7191 25.5405 51.2837 25.3343 52.0209 25.3307L55.0715 25.3158L55.064 23.7905C55.0606 23.1042 54.7285 22.7626 54.0675 22.7658L51.9322 22.7763L50.371 23.2415L50.0221 22.0802ZM52.0812 29.8491L52.6341 29.8464L55.0848 28.0422L55.0773 26.4979L52.0649 26.5126C51.4039 26.5159 51.0751 26.8607 51.0785 27.547L51.0848 28.8244C51.0881 29.5108 51.4203 29.8524 52.0812 29.8491Z" fill="white"/>
<path d="M65.8023 29.5531L66 31.0012L64.6852 31.1602L64.4673 29.4834L64.4392 23.7446C64.4358 23.0582 64.1036 22.7167 63.4427 22.7199L62.8326 22.7229L60.4368 24.0693L60.4709 31.0283L59.1363 31.0348L59.0974 23.0844L58.8992 21.541L60.1948 21.363L60.373 22.7159L62.5215 21.4851L63.4748 21.4804C64.212 21.4768 64.7786 21.6774 65.1746 22.0822C65.5706 22.4743 65.7703 23.0326 65.7739 23.7571L65.8023 29.5531Z" fill="white"/>
<path d="M53.0424 9.39466L55.3157 11.6679L55.9653 11.0184L53.6919 8.74516L53.0424 9.39466ZM50.2831 11.8302C50.111 12.0023 50.0142 12.2358 50.0141 12.4793C50.014 12.7227 50.1105 12.9563 50.2825 13.1286L51.581 14.4282C51.7534 14.6001 51.987 14.6966 52.2304 14.6968C52.4739 14.6969 52.7075 14.6006 52.8802 14.4289L55.1538 12.1554L52.5556 9.55738L50.2831 11.8302ZM55.6405 6.79668C55.5974 6.75362 55.539 6.72942 55.4781 6.72942C55.4172 6.72942 55.3588 6.75362 55.3157 6.79668L54.991 7.12142C54.9479 7.16449 54.9237 7.22289 54.9237 7.2838C54.9237 7.3447 54.9479 7.40311 54.991 7.44617L57.2643 9.7194C57.3074 9.76246 57.3658 9.78665 57.4267 9.78665C57.4876 9.78665 57.546 9.76246 57.5891 9.7194L57.9138 9.39466C57.9569 9.35159 57.9811 9.29318 57.9811 9.23228C57.9811 9.17138 57.9569 9.11297 57.9138 9.0699L55.6405 6.79668ZM54.0167 8.42041L56.29 10.6936L56.9396 10.0442L54.6662 7.77091L54.0167 8.42041Z" fill="white"/>
<path d="M64.0352 0.000127783C64.2133 0.00355608 64.3831 0.0758153 64.5091 0.20175C64.635 0.327718 64.7073 0.497561 64.7107 0.675652C64.7142 0.853743 64.6485 1.02624 64.5275 1.15697L58.0392 8.22094L56.4895 6.67134L63.5538 0.183362C63.6846 0.0623688 63.8571 -0.00330052 64.0352 0.000127783Z" fill="white"/>
<path d="M64.0352 0.000127783C64.2133 0.00355608 64.3832 0.0758156 64.5092 0.20175C64.6351 0.327718 64.7074 0.497561 64.7108 0.675652C64.7142 0.853743 64.6485 1.02624 64.5276 1.15697L58.0392 8.22094L56.4896 6.67134L63.5539 0.183362C63.6846 0.0623687 63.8571 -0.00330052 64.0352 0.000127783Z" fill="#00FF19"/>
</svg>
